<?xml version="1.0" encoding="UTF-8"?>
<!--
  Pastera bos kutu — Illustrator veya Figma'da duzenleyebilirsin.
  viewBox: 0 0 200 260
  Agiz (makarna alani): 48,22 152,22 178,90 22,90
  Kod tarafinda ayni koordinatlar: src/components/pasta-builder/box-shell.tsx
-->
<svg xmlns="http://www.w3.org/2000/svg" viewBox="0 0 200 260">
  <defs>
    <linearGradient id="green-front" x1="0" y1="0" x2="0" y2="1">
      <stop offset="0%" stop-color="#2f4d3a"/>
      <stop offset="100%" stop-color="#1a2e22"/>
    </linearGradient>
    <linearGradient id="green-side" x1="0" y1="0" x2="1" y2="0">
      <stop offset="0%" stop-color="#1a2e22"/>
      <stop offset="100%" stop-color="#243d2e"/>
    </linearGradient>
    <linearGradient id="kraft" x1="0" y1="0" x2="0" y2="1">
      <stop offset="0%" stop-color="#e6d9c4"/>
      <stop offset="100%" stop-color="#b8a480"/>
    </linearGradient>
  </defs>
  <ellipse cx="100" cy="254" rx="70" ry="6" fill="rgba(0,0,0,0.28)"/>
  <path d="M4 256 L24 92 L48 22 L0 24 L0 256 Z" fill="url(#green-side)"/>
  <path d="M196 256 L176 92 L152 22 L200 24 L200 256 Z" fill="url(#green-side)"/>
  <polygon points="48,22 152,22 178,90 22,90" fill="url(#kraft)"/>
  <path d="M22 90 L178 90 L196 256 L4 256 Z" fill="url(#green-front)"/>
  <polygon points="48,22 152,22 178,90 22,90" fill="none" stroke="#3d5c44" stroke-width="1.2"/>
  <line x1="22" y1="90" x2="178" y2="90" stroke="#4a7054" stroke-width="2"/>
  <text x="100" y="152" text-anchor="middle" fill="#c49746" font-size="18" font-family="Georgia, serif" font-weight="bold">PASTERA</text>
  <text x="100" y="166" text-anchor="middle" fill="#c49746" font-size="5.5" font-family="Arial" opacity="0.85">MODERN PASTA KITCHEN</text>
</svg>
